<svg width="81" height="20" viewBox="0 0 81 20" fill="none" xmlns="http://www.w3.org/2000/svg">
<path d="M7.45455 12.5455H9.77273L11.7159 15.1023L12.2273 15.7841L15.125 19.6364H12.8068L10.8977 17.0795L10.4205 16.4318L7.45455 12.5455ZM15.8409 9.27273C15.8409 11.1136 15.5085 12.7045 14.8438 14.0455C14.179 15.3864 13.267 16.4205 12.108 17.1477C10.9489 17.875 9.625 18.2386 8.13636 18.2386C6.64773 18.2386 5.32386 17.875 4.16477 17.1477C3.00568 16.4205 2.09375 15.3864 1.42898 14.0455C0.764205 12.7045 0.431818 11.1136 0.431818 9.27273C0.431818 7.43182 0.764205 5.84091 1.42898 4.5C2.09375 3.15909 3.00568 2.125 4.16477 1.39773C5.32386 0.670454 6.64773 0.306818 8.13636 0.306818C9.625 0.306818 10.9489 0.670454 12.108 1.39773C13.267 2.125 14.179 3.15909 14.8438 4.5C15.5085 5.84091 15.8409 7.43182 15.8409 9.27273ZM13.7955 9.27273C13.7955 7.76136 13.5426 6.4858 13.0369 5.44602C12.5369 4.40625 11.858 3.61932 11 3.08523C10.1477 2.55114 9.19318 2.28409 8.13636 2.28409C7.07955 2.28409 6.12216 2.55114 5.2642 3.08523C4.41193 3.61932 3.73295 4.40625 3.22727 5.44602C2.72727 6.4858 2.47727 7.76136 2.47727 9.27273C2.47727 10.7841 2.72727 12.0597 3.22727 13.0994C3.73295 14.1392 4.41193 14.9261 5.2642 15.4602C6.12216 15.9943 7.07955 16.2614 8.13636 16.2614C9.19318 16.2614 10.1477 15.9943 11 15.4602C11.858 14.9261 12.5369 14.1392 13.0369 13.0994C13.5426 12.0597 13.7955 10.7841 13.7955 9.27273ZM30.8494 0.545454H32.9631V12.1023C32.9631 13.2955 32.6818 14.3608 32.1193 15.2983C31.5625 16.2301 30.7756 16.9659 29.7585 17.5057C28.7415 18.0398 27.5483 18.3068 26.179 18.3068C24.8097 18.3068 23.6165 18.0398 22.5994 17.5057C21.5824 16.9659 20.7926 16.2301 20.2301 15.2983C19.6733 14.3608 19.3949 13.2955 19.3949 12.1023V0.545454H21.5085V11.9318C21.5085 12.7841 21.696 13.5426 22.071 14.2074C22.446 14.8665 22.9801 15.3864 23.6733 15.767C24.3722 16.142 25.2074 16.3295 26.179 16.3295C27.1506 16.3295 27.9858 16.142 28.6847 15.767C29.3835 15.3864 29.9176 14.8665 30.2869 14.2074C30.6619 13.5426 30.8494 12.7841 30.8494 11.9318V0.545454ZM51.9112 9.27273C51.9112 11.1136 51.5788 12.7045 50.9141 14.0455C50.2493 15.3864 49.3374 16.4205 48.1783 17.1477C47.0192 17.875 45.6953 18.2386 44.2067 18.2386C42.718 18.2386 41.3942 17.875 40.2351 17.1477C39.076 16.4205 38.1641 15.3864 37.4993 14.0455C36.8345 12.7045 36.5021 11.1136 36.5021 9.27273C36.5021 7.43182 36.8345 5.84091 37.4993 4.5C38.1641 3.15909 39.076 2.125 40.2351 1.39773C41.3942 0.670454 42.718 0.306818 44.2067 0.306818C45.6953 0.306818 47.0192 0.670454 48.1783 1.39773C49.3374 2.125 50.2493 3.15909 50.9141 4.5C51.5788 5.84091 51.9112 7.43182 51.9112 9.27273ZM49.8658 9.27273C49.8658 7.76136 49.6129 6.4858 49.1072 5.44602C48.6072 4.40625 47.9283 3.61932 47.0703 3.08523C46.218 2.55114 45.2635 2.28409 44.2067 2.28409C43.1499 2.28409 42.1925 2.55114 41.3345 3.08523C40.4822 3.61932 39.8033 4.40625 39.2976 5.44602C38.7976 6.4858 38.5476 7.76136 38.5476 9.27273C38.5476 10.7841 38.7976 12.0597 39.2976 13.0994C39.8033 14.1392 40.4822 14.9261 41.3345 15.4602C42.1925 15.9943 43.1499 16.2614 44.2067 16.2614C45.2635 16.2614 46.218 15.9943 47.0703 15.4602C47.9283 14.9261 48.6072 14.1392 49.1072 13.0994C49.6129 12.0597 49.8658 10.7841 49.8658 9.27273ZM53.7841 2.42045V0.545454H66.875V2.42045H61.3864V18H59.2727V2.42045H53.7841ZM70.1371 18V0.545454H80.6712V2.42045H72.2507V8.31818H80.1257V10.1932H72.2507V16.125H80.8075V18H70.1371Z" fill="#112340"/>
</svg>
